<?xml version="1.0" encoding="UTF-8"?>
<svg version="1.1" xmlns="http://www.w3.org/2000/svg" width="46" height="46">
<path d="M0 0 C6.78950896 3.7515605 10.60471933 8.63447049 13.0390625 15.9375 C13.71963158 23.46838738 13.51382405 29.66405979 9.0390625 35.9375 C4.7270291 41.0653235 0.45862623 44.53447999 -6.2421875 45.32421875 C-13.24559756 45.54120475 -19.32529007 45.41980563 -24.9609375 40.9375 C-29.66541664 36.48617668 -32.62090821 32.24685484 -33.296875 25.66796875 C-33.3881009 17.39378003 -33.13904014 11.35321985 -27.3125 5.1953125 C-19.71377312 -1.73977011 -9.82619941 -3.52602406 0 0 Z " fill="#0352B5" transform="translate(32.9609375,1.0625)"/>
<path d="M0 0 C1.33573137 0.66184888 2.66850827 1.32966278 4 2 C4.70640625 2.33515625 5.4128125 2.6703125 6.140625 3.015625 C8.65636819 4.48780064 10.23908539 5.65350808 12 8 C12.75152539 12.73834091 12.61048659 17.24827452 12 22 C10.41062444 23.58937556 8.76100154 23.12981143 6.5625 23.1328125 C5.22058594 23.13474609 5.22058594 23.13474609 3.8515625 23.13671875 C2.91054688 23.13285156 1.96953125 23.12898438 1 23.125 C-0.41152344 23.13080078 -0.41152344 23.13080078 -1.8515625 23.13671875 C-2.74617188 23.13542969 -3.64078125 23.13414063 -4.5625 23.1328125 C-5.38878906 23.13168457 -6.21507812 23.13055664 -7.06640625 23.12939453 C-9 23 -9 23 -10 22 C-10.74907039 17.19943583 -10.92502639 12.7801643 -10 8 C-7.12764041 4.51393135 -3.89895484 2.24189904 0 0 Z " fill="#EEF3FA" transform="translate(22,10)"/>
<path d="M0 0 C0.639375 0.33 1.27875 0.66 1.9375 1 C2.68 1.350625 3.4225 1.70125 4.1875 2.0625 C6.28115584 4.3804761 6.1875 5.15171119 6.1875 8.1875 C6.105 9.445625 6.0225 10.70375 5.9375 12 C4.6175 12 3.2975 12 1.9375 12 C1.9375 10.68 1.9375 9.36 1.9375 8 C0.6175 8 -0.7025 8 -2.0625 8 C-2.0625 9.65 -2.0625 11.3 -2.0625 13 C-3.7125 13 -5.3625 13 -7.0625 13 C-7.67035141 5.82735331 -7.67035141 5.82735331 -4.8125 1.9375 C-2.0625 0 -2.0625 0 0 0 Z " fill="#135CBA" transform="translate(23.0625,16)"/>
</svg>
